<?xml version="1.0" encoding="utf-8"?>
<!-- Generator: Adobe Illustrator 16.0.0, SVG Export Plug-In . SVG Version: 6.00 Build 0)  -->
<!DOCTYPE svg PUBLIC "-//W3C//DTD SVG 1.1//EN" "http://www.w3.org/Graphics/SVG/1.1/DTD/svg11.dtd">
<svg version="1.1" id="Layer_1" xmlns="http://www.w3.org/2000/svg" xmlns:xlink="http://www.w3.org/1999/xlink" x="0px" y="0px"
	 width="150px" height="20px" viewBox="0 0 150 20" enable-background="new 0 0 150 20" xml:space="preserve">
<g>
	<path fill="#17171F" d="M20.07,11.716c0-1.971-1.097-2.998-2.752-2.998c-1.679,0-2.775,1.027-2.775,2.998v6.85H11.41v-6.85
		c0-1.971-1.096-2.998-2.752-2.998c-1.701,0-2.797,1.027-2.797,2.998v6.85H2.728V6.167h3.133v1.5
		c0.784-1.029,2.103-1.679,3.647-1.679c1.925,0,3.514,0.826,4.363,2.371c0.806-1.409,2.439-2.371,4.252-2.371
		c2.977,0,5.081,1.878,5.081,5.304v7.273h-3.133L20.07,11.716L20.07,11.716z"/>
	<path fill="#34EACD" d="M23.606,2.854c0-1.029,0.806-1.835,1.925-1.835c1.096,0,1.924,0.806,1.924,1.835s-0.828,1.835-1.924,1.835
		C24.412,4.689,23.606,3.884,23.606,2.854z"/>
	<rect x="23.941" y="6.166" fill="#17171F" width="3.134" height="12.398"/>
	<path fill="#17171F" d="M36.515,11.716c0-1.992-1.097-3.066-2.753-3.066c-1.7,0-2.796,1.074-2.796,3.066v6.85h-3.134V6.167h3.134
		v1.545c0.805-1.053,2.148-1.724,3.736-1.724c2.887,0,4.945,1.878,4.945,5.304v7.273h-3.132V11.716z"/>
	<path fill="#17171F" d="M46.701,18.766c-3.581,0-6.289-2.506-6.289-6.4c0-3.916,2.796-6.4,6.377-6.4s6.378,2.484,6.378,6.4
		C53.168,16.26,50.303,18.766,46.701,18.766z M46.701,16.035c1.656,0,3.244-1.206,3.244-3.67c0-2.483-1.543-3.67-3.2-3.67
		c-1.656,0-3.154,1.187-3.154,3.67C43.59,14.828,45.022,16.035,46.701,16.035z"/>
	<path fill="#17171F" d="M58.943,18.766c-3.111,0-5.281-1.813-5.416-4.118h3.154c0.113,0.941,0.985,1.657,2.238,1.657
		c1.231,0,1.902-0.562,1.902-1.276c0-2.216-7.004-0.806-7.004-5.348c0-2.061,1.835-3.717,4.9-3.717c2.998,0,4.812,1.635,4.989,4.098
		H60.71c-0.09-0.964-0.851-1.612-2.081-1.612c-1.164,0-1.769,0.472-1.769,1.188c0,2.261,6.87,0.85,6.96,5.393
		C63.822,17.153,61.965,18.766,58.943,18.766z"/>
	<path fill="#17171F" d="M70.4,5.964c3.088,0,5.169,1.611,5.841,4.388h-3.38c-0.358-1.052-1.186-1.725-2.483-1.725
		c-1.745,0-2.909,1.321-2.909,3.737c0,2.417,1.164,3.715,2.909,3.715c1.298,0,2.104-0.58,2.483-1.699h3.38
		c-0.672,2.641-2.753,4.386-5.841,4.386c-3.581,0-6.133-2.506-6.133-6.4C64.268,8.472,66.819,5.964,70.4,5.964z"/>
	<path fill="#17171F" d="M80.141,18.565h-3.133V6.167h3.133v1.926c0.783-1.277,2.082-2.104,3.805-2.104v3.289h-0.829
		c-1.856,0-2.978,0.717-2.978,3.11v6.178H80.141z"/>
	<path fill="#17171F" d="M90.268,18.766c-3.603,0-6.222-2.506-6.222-6.4c0-3.916,2.552-6.4,6.222-6.4
		c3.58,0,6.108,2.439,6.108,6.133c0,0.403-0.022,0.806-0.089,1.209h-9.063c0.156,1.835,1.41,2.864,2.977,2.864
		c1.342,0,2.081-0.672,2.482-1.5h3.379C95.391,16.953,93.333,18.766,90.268,18.766z M87.247,11.201h5.886
		c-0.046-1.633-1.344-2.661-2.955-2.661C88.68,8.538,87.492,9.501,87.247,11.201z"/>
	<path fill="#17171F" d="M102.785,5.964c1.992,0,3.357,0.94,4.095,1.97V6.165h3.155v12.399h-3.155v-1.813
		c-0.737,1.071-2.147,2.013-4.116,2.013c-3.135,0-5.641-2.573-5.641-6.445C97.123,8.449,99.629,5.964,102.785,5.964z M103.592,8.718
		c-1.679,0-3.268,1.254-3.268,3.603c0,2.351,1.588,3.692,3.268,3.692c1.724,0,3.289-1.298,3.289-3.647
		C106.88,10.017,105.314,8.718,103.592,8.718z"/>
	<path fill="#17171F" d="M112.243,8.74h-1.478V6.167h1.478V3.101h3.156v3.066h2.774V8.74h-2.774v5.997
		c0,0.829,0.335,1.188,1.319,1.188h1.455v2.642h-1.969c-2.372,0-3.961-1.009-3.961-3.851L112.243,8.74L112.243,8.74z"/>
	<path fill="#34EACD" d="M118.59,2.854c0-1.029,0.805-1.835,1.924-1.835c1.099,0,1.926,0.806,1.926,1.835s-0.827,1.835-1.926,1.835
		C119.395,4.689,118.59,3.884,118.59,2.854z"/>
	<rect x="118.926" y="6.166" fill="#17171F" width="3.133" height="12.398"/>
	<path fill="#17171F" d="M126.174,6.166l3.133,9.511l3.133-9.511h3.335l-4.589,12.398h-3.803l-4.566-12.398H126.174z"/>
	<path fill="#17171F" d="M140.985,18.766c-3.604,0-6.222-2.506-6.222-6.4c0-3.916,2.551-6.4,6.222-6.4
		c3.58,0,6.108,2.439,6.108,6.133c0,0.403-0.022,0.806-0.09,1.209h-9.063c0.156,1.835,1.408,2.864,2.976,2.864
		c1.343,0,2.081-0.672,2.483-1.5h3.38C146.109,16.953,144.051,18.766,140.985,18.766z M137.963,11.201h5.885
		c-0.045-1.633-1.343-2.661-2.953-2.661C139.395,8.538,138.209,9.501,137.963,11.201z"/>
</g>
</svg>
